<mxfile host="app.diagrams.net" modified="2024-05-23T11:23:51.891Z" agent="Mozilla/5.0 (Windows NT 10.0; Win64; x64) AppleWebKit/537.36 (KHTML, like Gecko) Chrome/125.0.0.0 Safari/537.36" etag="PqOcb3CxUtzWnfTBE7AO" version="24.4.6" type="google">
  <diagram name="Page-1" id="7XjXioqxU-x8ce748P5Y">
    <mxGraphModel grid="1" page="1" gridSize="9" guides="1" tooltips="1" connect="1" arrows="1" fold="1" pageScale="1" pageWidth="850" pageHeight="1100" background="#ffffff" math="0" shadow="0">
      <root>
        <mxCell id="0" />
        <mxCell id="1" parent="0" />
        <mxCell id="A5ztiFUX0k2Zx3acSY-h-8" value="User" style="shape=umlActor;verticalLabelPosition=bottom;verticalAlign=top;html=1;outlineConnect=0;perimeterSpacing=2;strokeWidth=4;" vertex="1" parent="1">
          <mxGeometry x="-830" y="460" width="50" height="100" as="geometry" />
        </mxCell>
        <mxCell id="A5ztiFUX0k2Zx3acSY-h-10" value="" style="endArrow=none;html=1;rounded=0;endSize=10;strokeWidth=1;entryX=0;entryY=1;entryDx=0;entryDy=0;fillColor=#ffe6cc;strokeColor=#d79b00;" edge="1" parent="1" target="A5ztiFUX0k2Zx3acSY-h-17">
          <mxGeometry width="50" height="50" relative="1" as="geometry">
            <mxPoint x="-800" y="470" as="sourcePoint" />
            <mxPoint x="-720" y="330" as="targetPoint" />
          </mxGeometry>
        </mxCell>
        <mxCell id="A5ztiFUX0k2Zx3acSY-h-16" value="" style="endArrow=none;html=1;rounded=0;strokeWidth=1;exitX=1;exitY=0.3333333333333333;exitDx=0;exitDy=0;exitPerimeter=0;entryX=1;entryY=0;entryDx=0;entryDy=0;fillColor=#ffe6cc;strokeColor=#d79b00;" edge="1" parent="1" source="A5ztiFUX0k2Zx3acSY-h-8" target="A5ztiFUX0k2Zx3acSY-h-18">
          <mxGeometry width="50" height="50" relative="1" as="geometry">
            <mxPoint x="-790" y="570" as="sourcePoint" />
            <mxPoint x="-730" y="670" as="targetPoint" />
            <Array as="points">
              <mxPoint x="-684" y="510" />
            </Array>
          </mxGeometry>
        </mxCell>
        <mxCell id="A5ztiFUX0k2Zx3acSY-h-17" value="&lt;font style=&quot;font-size: 27px;&quot;&gt;about us&lt;/font&gt;" style="ellipse;whiteSpace=wrap;html=1;" vertex="1" parent="1">
          <mxGeometry x="-792" y="222" width="120" height="80" as="geometry" />
        </mxCell>
        <mxCell id="A5ztiFUX0k2Zx3acSY-h-18" value="&lt;p style=&quot;line-height: 120%;&quot;&gt;&lt;font style=&quot;font-size: 15px;&quot;&gt;Contact us&lt;/font&gt;&lt;/p&gt;" style="ellipse;whiteSpace=wrap;html=1;" vertex="1" parent="1">
          <mxGeometry x="-189" y="594" width="120" height="80" as="geometry" />
        </mxCell>
        <mxCell id="A5ztiFUX0k2Zx3acSY-h-19" value="" style="endArrow=none;html=1;rounded=0;exitX=0.5;exitY=0.5;exitDx=0;exitDy=0;exitPerimeter=0;fillColor=#dae8fc;strokeColor=#6c8ebf;" edge="1" parent="1" source="A5ztiFUX0k2Zx3acSY-h-8" target="A5ztiFUX0k2Zx3acSY-h-20">
          <mxGeometry width="50" height="50" relative="1" as="geometry">
            <mxPoint x="-765" y="513" as="sourcePoint" />
            <mxPoint x="-603" y="603" as="targetPoint" />
            <Array as="points">
              <mxPoint x="-729" y="549" />
            </Array>
          </mxGeometry>
        </mxCell>
        <mxCell id="A5ztiFUX0k2Zx3acSY-h-20" value="Sign up" style="ellipse;whiteSpace=wrap;html=1;" vertex="1" parent="1">
          <mxGeometry x="-657.0000000000005" y="550" width="120" height="80" as="geometry" />
        </mxCell>
        <mxCell id="A5ztiFUX0k2Zx3acSY-h-21" value="" style="endArrow=none;html=1;rounded=0;exitX=1;exitY=1;exitDx=0;exitDy=0;entryX=0.328;entryY=0.013;entryDx=0;entryDy=0;entryPerimeter=0;" edge="1" parent="1" source="A5ztiFUX0k2Zx3acSY-h-20" target="A5ztiFUX0k2Zx3acSY-h-22">
          <mxGeometry width="50" height="50" relative="1" as="geometry">
            <mxPoint x="-387" y="500" as="sourcePoint" />
            <mxPoint x="-531" y="675" as="targetPoint" />
          </mxGeometry>
        </mxCell>
        <mxCell id="A5ztiFUX0k2Zx3acSY-h-22" value="Register" style="ellipse;whiteSpace=wrap;html=1;" vertex="1" parent="1">
          <mxGeometry x="-522" y="702" width="120" height="80" as="geometry" />
        </mxCell>
        <mxCell id="A5ztiFUX0k2Zx3acSY-h-23" value="Get Code" style="ellipse;whiteSpace=wrap;html=1;" vertex="1" parent="1">
          <mxGeometry x="-850" y="747" width="120" height="80" as="geometry" />
        </mxCell>
        <mxCell id="A5ztiFUX0k2Zx3acSY-h-24" value="" style="endArrow=none;html=1;rounded=0;exitX=0.5;exitY=1;exitDx=0;exitDy=0;entryX=0.5;entryY=0;entryDx=0;entryDy=0;" edge="1" parent="1" source="A5ztiFUX0k2Zx3acSY-h-20" target="A5ztiFUX0k2Zx3acSY-h-23">
          <mxGeometry width="50" height="50" relative="1" as="geometry">
            <mxPoint x="-387" y="500" as="sourcePoint" />
            <mxPoint x="-337" y="450" as="targetPoint" />
          </mxGeometry>
        </mxCell>
        <mxCell id="A5ztiFUX0k2Zx3acSY-h-25" value="It Send a code to mail" style="rounded=1;whiteSpace=wrap;html=1;" vertex="1" parent="1">
          <mxGeometry x="-709.5" y="719" width="81" height="60" as="geometry" />
        </mxCell>
        <mxCell id="A5ztiFUX0k2Zx3acSY-h-26" value="Back" style="ellipse;whiteSpace=wrap;html=1;" vertex="1" parent="1">
          <mxGeometry x="-363" y="719" width="120" height="80" as="geometry" />
        </mxCell>
        <mxCell id="A5ztiFUX0k2Zx3acSY-h-27" value="" style="endArrow=none;html=1;rounded=0;exitX=1;exitY=0.5;exitDx=0;exitDy=0;entryX=0;entryY=0;entryDx=0;entryDy=0;" edge="1" parent="1" source="A5ztiFUX0k2Zx3acSY-h-20" target="A5ztiFUX0k2Zx3acSY-h-26">
          <mxGeometry width="50" height="50" relative="1" as="geometry">
            <mxPoint x="-387" y="500" as="sourcePoint" />
            <mxPoint x="-337" y="450" as="targetPoint" />
          </mxGeometry>
        </mxCell>
        <mxCell id="A5ztiFUX0k2Zx3acSY-h-28" value="" style="endArrow=none;html=1;rounded=0;exitX=1;exitY=0.3333333333333333;exitDx=0;exitDy=0;exitPerimeter=0;fillColor=#dae8fc;strokeColor=#6c8ebf;" edge="1" parent="1" source="A5ztiFUX0k2Zx3acSY-h-8" target="A5ztiFUX0k2Zx3acSY-h-29">
          <mxGeometry width="50" height="50" relative="1" as="geometry">
            <mxPoint x="-351" y="563" as="sourcePoint" />
            <mxPoint x="-522" y="423" as="targetPoint" />
          </mxGeometry>
        </mxCell>
        <mxCell id="A5ztiFUX0k2Zx3acSY-h-29" value="Sign in" style="ellipse;whiteSpace=wrap;html=1;" vertex="1" parent="1">
          <mxGeometry x="-582" y="383" width="120" height="80" as="geometry" />
        </mxCell>
        <mxCell id="A5ztiFUX0k2Zx3acSY-h-30" value="" style="endArrow=none;html=1;rounded=0;exitX=1;exitY=0;exitDx=0;exitDy=0;" edge="1" parent="1" source="A5ztiFUX0k2Zx3acSY-h-29" target="A5ztiFUX0k2Zx3acSY-h-31">
          <mxGeometry width="50" height="50" relative="1" as="geometry">
            <mxPoint x="-324" y="401" as="sourcePoint" />
            <mxPoint x="-405" y="342" as="targetPoint" />
          </mxGeometry>
        </mxCell>
        <mxCell id="A5ztiFUX0k2Zx3acSY-h-31" value="Login" style="ellipse;whiteSpace=wrap;html=1;" vertex="1" parent="1">
          <mxGeometry x="-465" y="302" width="120" height="80" as="geometry" />
        </mxCell>
        <mxCell id="A5ztiFUX0k2Zx3acSY-h-32" value="" style="endArrow=none;html=1;rounded=0;exitX=1;exitY=1;exitDx=0;exitDy=0;" edge="1" parent="1" source="A5ztiFUX0k2Zx3acSY-h-29" target="A5ztiFUX0k2Zx3acSY-h-33">
          <mxGeometry width="50" height="50" relative="1" as="geometry">
            <mxPoint x="-324" y="401" as="sourcePoint" />
            <mxPoint x="-423" y="495" as="targetPoint" />
          </mxGeometry>
        </mxCell>
        <mxCell id="A5ztiFUX0k2Zx3acSY-h-33" value="Back" style="ellipse;whiteSpace=wrap;html=1;" vertex="1" parent="1">
          <mxGeometry x="-483.0000000000002" y="455" width="120" height="80" as="geometry" />
        </mxCell>
        <mxCell id="A5ztiFUX0k2Zx3acSY-h-34" value="" style="endArrow=none;html=1;rounded=0;exitX=1;exitY=0;exitDx=0;exitDy=0;" edge="1" parent="1" source="A5ztiFUX0k2Zx3acSY-h-31" target="A5ztiFUX0k2Zx3acSY-h-35">
          <mxGeometry width="50" height="50" relative="1" as="geometry">
            <mxPoint x="-324" y="401" as="sourcePoint" />
            <mxPoint x="-324" y="252" as="targetPoint" />
          </mxGeometry>
        </mxCell>
        <mxCell id="A5ztiFUX0k2Zx3acSY-h-35" value="SellPage" style="ellipse;whiteSpace=wrap;html=1;" vertex="1" parent="1">
          <mxGeometry x="-384" y="212" width="120" height="80" as="geometry" />
        </mxCell>
        <mxCell id="A5ztiFUX0k2Zx3acSY-h-36" value="" style="endArrow=none;html=1;rounded=0;entryX=1;entryY=1;entryDx=0;entryDy=0;" edge="1" parent="1" source="A5ztiFUX0k2Zx3acSY-h-35" target="A5ztiFUX0k2Zx3acSY-h-37">
          <mxGeometry width="50" height="50" relative="1" as="geometry">
            <mxPoint x="-324" y="401" as="sourcePoint" />
            <mxPoint x="-288" y="378" as="targetPoint" />
          </mxGeometry>
        </mxCell>
        <mxCell id="A5ztiFUX0k2Zx3acSY-h-37" value="Back" style="ellipse;whiteSpace=wrap;html=1;" vertex="1" parent="1">
          <mxGeometry x="-549.0000000000002" y="171" width="120" height="80" as="geometry" />
        </mxCell>
        <mxCell id="A5ztiFUX0k2Zx3acSY-h-38" value="New order" style="ellipse;whiteSpace=wrap;html=1;" vertex="1" parent="1">
          <mxGeometry x="-345" y="99" width="120" height="80" as="geometry" />
        </mxCell>
        <mxCell id="A5ztiFUX0k2Zx3acSY-h-39" value="" style="endArrow=none;html=1;rounded=0;entryX=0.5;entryY=1;entryDx=0;entryDy=0;" edge="1" parent="1" target="A5ztiFUX0k2Zx3acSY-h-38">
          <mxGeometry width="50" height="50" relative="1" as="geometry">
            <mxPoint x="-315" y="207" as="sourcePoint" />
            <mxPoint x="-274" y="351" as="targetPoint" />
            <Array as="points">
              <mxPoint x="-315" y="198" />
            </Array>
          </mxGeometry>
        </mxCell>
        <mxCell id="A5ztiFUX0k2Zx3acSY-h-40" value="Order page for Sell" style="whiteSpace=wrap;html=1;aspect=fixed;" vertex="1" parent="1">
          <mxGeometry x="-213" y="-28" width="80" height="80" as="geometry" />
        </mxCell>
        <mxCell id="A5ztiFUX0k2Zx3acSY-h-41" value="" style="endArrow=none;html=1;rounded=0;entryX=1;entryY=0;entryDx=0;entryDy=0;exitX=0;exitY=1;exitDx=0;exitDy=0;" edge="1" parent="1" source="A5ztiFUX0k2Zx3acSY-h-40" target="A5ztiFUX0k2Zx3acSY-h-38">
          <mxGeometry width="50" height="50" relative="1" as="geometry">
            <mxPoint x="-315" y="185" as="sourcePoint" />
            <mxPoint x="-265" y="135" as="targetPoint" />
          </mxGeometry>
        </mxCell>
        <mxCell id="A5ztiFUX0k2Zx3acSY-h-42" value="Report" style="ellipse;whiteSpace=wrap;html=1;" vertex="1" parent="1">
          <mxGeometry x="-213" y="207" width="120" height="80" as="geometry" />
        </mxCell>
        <mxCell id="A5ztiFUX0k2Zx3acSY-h-43" value="" style="endArrow=none;html=1;rounded=0;entryX=1;entryY=0.5;entryDx=0;entryDy=0;exitX=0;exitY=0.5;exitDx=0;exitDy=0;" edge="1" parent="1" source="A5ztiFUX0k2Zx3acSY-h-42" target="A5ztiFUX0k2Zx3acSY-h-35">
          <mxGeometry width="50" height="50" relative="1" as="geometry">
            <mxPoint x="-333" y="383" as="sourcePoint" />
            <mxPoint x="-283" y="333" as="targetPoint" />
          </mxGeometry>
        </mxCell>
        <mxCell id="A5ztiFUX0k2Zx3acSY-h-44" value="Report about daily Sell&amp;nbsp;" style="whiteSpace=wrap;html=1;aspect=fixed;" vertex="1" parent="1">
          <mxGeometry x="-45" y="207" width="80" height="80" as="geometry" />
        </mxCell>
        <mxCell id="A5ztiFUX0k2Zx3acSY-h-45" value="" style="endArrow=none;html=1;rounded=0;entryX=1;entryY=0.5;entryDx=0;entryDy=0;exitX=0;exitY=0.5;exitDx=0;exitDy=0;" edge="1" parent="1" source="A5ztiFUX0k2Zx3acSY-h-44" target="A5ztiFUX0k2Zx3acSY-h-42">
          <mxGeometry width="50" height="50" relative="1" as="geometry">
            <mxPoint x="-333" y="383" as="sourcePoint" />
            <mxPoint x="-283" y="333" as="targetPoint" />
          </mxGeometry>
        </mxCell>
        <mxCell id="A5ztiFUX0k2Zx3acSY-h-46" value="Add Product" style="ellipse;whiteSpace=wrap;html=1;" vertex="1" parent="1">
          <mxGeometry x="-284" y="441" width="120" height="80" as="geometry" />
        </mxCell>
        <mxCell id="A5ztiFUX0k2Zx3acSY-h-47" value="" style="endArrow=none;html=1;rounded=0;entryX=1;entryY=1;entryDx=0;entryDy=0;" edge="1" parent="1" source="A5ztiFUX0k2Zx3acSY-h-46" target="A5ztiFUX0k2Zx3acSY-h-35">
          <mxGeometry width="50" height="50" relative="1" as="geometry">
            <mxPoint x="-333" y="383" as="sourcePoint" />
            <mxPoint x="-99" y="306" as="targetPoint" />
          </mxGeometry>
        </mxCell>
        <mxCell id="A5ztiFUX0k2Zx3acSY-h-49" value="" style="endArrow=none;html=1;rounded=0;entryX=1;entryY=0;entryDx=0;entryDy=0;" edge="1" parent="1" target="A5ztiFUX0k2Zx3acSY-h-35">
          <mxGeometry width="50" height="50" relative="1" as="geometry">
            <mxPoint x="-90" y="117" as="sourcePoint" />
            <mxPoint x="-283" y="333" as="targetPoint" />
          </mxGeometry>
        </mxCell>
        <mxCell id="A5ztiFUX0k2Zx3acSY-h-51" value="Myproducts" style="ellipse;whiteSpace=wrap;html=1;" vertex="1" parent="1">
          <mxGeometry x="-103" y="72" width="120" height="80" as="geometry" />
        </mxCell>
        <mxCell id="A5ztiFUX0k2Zx3acSY-h-52" value="" style="endArrow=none;html=1;rounded=0;entryX=1;entryY=0.5;entryDx=0;entryDy=0;" edge="1" parent="1" target="A5ztiFUX0k2Zx3acSY-h-51">
          <mxGeometry width="50" height="50" relative="1" as="geometry">
            <mxPoint x="90" y="90" as="sourcePoint" />
            <mxPoint x="-283" y="333" as="targetPoint" />
          </mxGeometry>
        </mxCell>
        <mxCell id="A5ztiFUX0k2Zx3acSY-h-55" value="MyproductsPage" style="whiteSpace=wrap;html=1;aspect=fixed;" vertex="1" parent="1">
          <mxGeometry x="81" y="45" width="90" height="90" as="geometry" />
        </mxCell>
        <mxCell id="A5ztiFUX0k2Zx3acSY-h-56" value="" style="endArrow=none;html=1;rounded=0;entryX=1;entryY=0.5;entryDx=0;entryDy=0;" edge="1" parent="1" target="A5ztiFUX0k2Zx3acSY-h-55">
          <mxGeometry width="50" height="50" relative="1" as="geometry">
            <mxPoint x="243" y="90" as="sourcePoint" />
            <mxPoint x="-283" y="333" as="targetPoint" />
          </mxGeometry>
        </mxCell>
        <mxCell id="A5ztiFUX0k2Zx3acSY-h-57" value="Edit Product" style="ellipse;whiteSpace=wrap;html=1;" vertex="1" parent="1">
          <mxGeometry x="225" y="44" width="120" height="80" as="geometry" />
        </mxCell>
        <mxCell id="A5ztiFUX0k2Zx3acSY-h-58" value="" style="endArrow=none;html=1;rounded=0;entryX=1;entryY=1;entryDx=0;entryDy=0;" edge="1" parent="1" target="A5ztiFUX0k2Zx3acSY-h-55">
          <mxGeometry width="50" height="50" relative="1" as="geometry">
            <mxPoint x="216" y="207" as="sourcePoint" />
            <mxPoint x="-283" y="333" as="targetPoint" />
          </mxGeometry>
        </mxCell>
        <mxCell id="A5ztiFUX0k2Zx3acSY-h-59" value="Back" style="ellipse;whiteSpace=wrap;html=1;" vertex="1" parent="1">
          <mxGeometry x="179.99999999999977" y="198" width="120" height="80" as="geometry" />
        </mxCell>
        <mxCell id="A5ztiFUX0k2Zx3acSY-h-60" value="Back" style="ellipse;whiteSpace=wrap;html=1;" vertex="1" parent="1">
          <mxGeometry x="-126.00000000000023" y="369" width="120" height="80" as="geometry" />
        </mxCell>
        <mxCell id="A5ztiFUX0k2Zx3acSY-h-61" value="" style="endArrow=none;html=1;rounded=0;entryX=0.5;entryY=1;entryDx=0;entryDy=0;exitX=0.298;exitY=0.027;exitDx=0;exitDy=0;exitPerimeter=0;" edge="1" parent="1" source="A5ztiFUX0k2Zx3acSY-h-60" target="A5ztiFUX0k2Zx3acSY-h-42">
          <mxGeometry width="50" height="50" relative="1" as="geometry">
            <mxPoint x="-333" y="383" as="sourcePoint" />
            <mxPoint x="-283" y="333" as="targetPoint" />
          </mxGeometry>
        </mxCell>
        <mxCell id="A5ztiFUX0k2Zx3acSY-h-64" value="Customer can create his Store" style="whiteSpace=wrap;html=1;aspect=fixed;" vertex="1" parent="1">
          <mxGeometry x="-582" y="801" width="80" height="80" as="geometry" />
        </mxCell>
        <mxCell id="A5ztiFUX0k2Zx3acSY-h-65" value="" style="endArrow=none;html=1;rounded=0;entryX=0.25;entryY=0;entryDx=0;entryDy=0;" edge="1" parent="1" source="A5ztiFUX0k2Zx3acSY-h-20" target="A5ztiFUX0k2Zx3acSY-h-64">
          <mxGeometry width="50" height="50" relative="1" as="geometry">
            <mxPoint x="-594" y="648" as="sourcePoint" />
            <mxPoint x="-283" y="513" as="targetPoint" />
            <Array as="points">
              <mxPoint x="-585" y="792" />
            </Array>
          </mxGeometry>
        </mxCell>
        <mxCell id="A5ztiFUX0k2Zx3acSY-h-66" value="" style="endArrow=none;html=1;rounded=0;entryX=0.5;entryY=0;entryDx=0;entryDy=0;exitX=0.5;exitY=1;exitDx=0;exitDy=0;" edge="1" parent="1" source="A5ztiFUX0k2Zx3acSY-h-67" target="A5ztiFUX0k2Zx3acSY-h-55">
          <mxGeometry width="50" height="50" relative="1" as="geometry">
            <mxPoint x="117" y="-90" as="sourcePoint" />
            <mxPoint x="-283" y="-36" as="targetPoint" />
          </mxGeometry>
        </mxCell>
        <mxCell id="A5ztiFUX0k2Zx3acSY-h-67" value="Delete product" style="ellipse;whiteSpace=wrap;html=1;" vertex="1" parent="1">
          <mxGeometry x="66" y="-153" width="120" height="80" as="geometry" />
        </mxCell>
        <mxCell id="A5ztiFUX0k2Zx3acSY-h-68" value="" style="endArrow=none;html=1;rounded=0;entryX=1;entryY=0.5;entryDx=0;entryDy=0;" edge="1" parent="1" target="A5ztiFUX0k2Zx3acSY-h-57">
          <mxGeometry width="50" height="50" relative="1" as="geometry">
            <mxPoint x="423" y="84" as="sourcePoint" />
            <mxPoint x="131" y="144" as="targetPoint" />
          </mxGeometry>
        </mxCell>
        <mxCell id="A5ztiFUX0k2Zx3acSY-h-69" value="You can change details of product which selected" style="whiteSpace=wrap;html=1;aspect=fixed;" vertex="1" parent="1">
          <mxGeometry x="425" y="45" width="97" height="97" as="geometry" />
        </mxCell>
        <mxCell id="A5ztiFUX0k2Zx3acSY-h-70" value="Open a page for contact company" style="whiteSpace=wrap;html=1;aspect=fixed;" vertex="1" parent="1">
          <mxGeometry x="-14" y="603" width="95" height="95" as="geometry" />
        </mxCell>
        <mxCell id="A5ztiFUX0k2Zx3acSY-h-71" value="" style="endArrow=none;html=1;rounded=0;exitX=1;exitY=0;exitDx=0;exitDy=0;entryX=0;entryY=0.5;entryDx=0;entryDy=0;" edge="1" parent="1" source="A5ztiFUX0k2Zx3acSY-h-18" target="A5ztiFUX0k2Zx3acSY-h-70">
          <mxGeometry width="50" height="50" relative="1" as="geometry">
            <mxPoint x="81" y="599" as="sourcePoint" />
            <mxPoint x="131" y="549" as="targetPoint" />
          </mxGeometry>
        </mxCell>
        <mxCell id="A5ztiFUX0k2Zx3acSY-h-72" value="Company" style="shape=umlActor;verticalLabelPosition=bottom;verticalAlign=top;html=1;outlineConnect=0;" vertex="1" parent="1">
          <mxGeometry x="396" y="693" width="72" height="106" as="geometry" />
        </mxCell>
        <mxCell id="A5ztiFUX0k2Zx3acSY-h-73" value="" style="endArrow=none;html=1;rounded=0;exitX=1;exitY=0.25;exitDx=0;exitDy=0;entryX=0;entryY=0.3333333333333333;entryDx=0;entryDy=0;entryPerimeter=0;" edge="1" parent="1" source="A5ztiFUX0k2Zx3acSY-h-70" target="A5ztiFUX0k2Zx3acSY-h-72">
          <mxGeometry width="50" height="50" relative="1" as="geometry">
            <mxPoint x="81" y="599" as="sourcePoint" />
            <mxPoint x="131" y="549" as="targetPoint" />
          </mxGeometry>
        </mxCell>
        <mxCell id="A5ztiFUX0k2Zx3acSY-h-74" value="If customer want changes in his program ,our software enginers do it" style="whiteSpace=wrap;html=1;aspect=fixed;strokeWidth=2;" vertex="1" parent="1">
          <mxGeometry x="549" y="648" width="117" height="117" as="geometry" />
        </mxCell>
        <mxCell id="A5ztiFUX0k2Zx3acSY-h-75" value="" style="endArrow=none;html=1;rounded=0;exitX=0.5;exitY=0;exitDx=0;exitDy=0;exitPerimeter=0;entryX=0;entryY=0;entryDx=0;entryDy=0;" edge="1" parent="1" source="A5ztiFUX0k2Zx3acSY-h-72" target="A5ztiFUX0k2Zx3acSY-h-74">
          <mxGeometry width="50" height="50" relative="1" as="geometry">
            <mxPoint x="81" y="599" as="sourcePoint" />
            <mxPoint x="549" y="639" as="targetPoint" />
          </mxGeometry>
        </mxCell>
        <mxCell id="A5ztiFUX0k2Zx3acSY-h-76" value="Whenn Customer have Poblem about program we have 7/24 help service" style="whiteSpace=wrap;html=1;aspect=fixed;" vertex="1" parent="1">
          <mxGeometry x="504" y="810" width="90" height="90" as="geometry" />
        </mxCell>
        <mxCell id="A5ztiFUX0k2Zx3acSY-h-77" value="" style="endArrow=none;html=1;rounded=0;exitX=1;exitY=0.3333333333333333;exitDx=0;exitDy=0;exitPerimeter=0;entryX=0.5;entryY=0;entryDx=0;entryDy=0;" edge="1" parent="1" source="A5ztiFUX0k2Zx3acSY-h-72" target="A5ztiFUX0k2Zx3acSY-h-76">
          <mxGeometry width="50" height="50" relative="1" as="geometry">
            <mxPoint x="81" y="599" as="sourcePoint" />
            <mxPoint x="131" y="549" as="targetPoint" />
          </mxGeometry>
        </mxCell>
        <mxCell id="A5ztiFUX0k2Zx3acSY-h-78" value="Get&lt;div&gt;information about our company&amp;nbsp;&lt;/div&gt;" style="whiteSpace=wrap;html=1;aspect=fixed;" vertex="1" parent="1">
          <mxGeometry x="-765" y="71" width="80" height="80" as="geometry" />
        </mxCell>
        <mxCell id="A5ztiFUX0k2Zx3acSY-h-79" value="" style="endArrow=none;html=1;rounded=0;exitX=0.5;exitY=0;exitDx=0;exitDy=0;entryX=0.5;entryY=1;entryDx=0;entryDy=0;" edge="1" parent="1" source="A5ztiFUX0k2Zx3acSY-h-17" target="A5ztiFUX0k2Zx3acSY-h-78">
          <mxGeometry width="50" height="50" relative="1" as="geometry">
            <mxPoint x="-315" y="239" as="sourcePoint" />
            <mxPoint x="-265" y="189" as="targetPoint" />
          </mxGeometry>
        </mxCell>
        <mxCell id="UuzJHWqhamIT8Px1-cuo-1" value="Profile" style="ellipse;whiteSpace=wrap;html=1;" vertex="1" parent="1">
          <mxGeometry x="-483" y="27" width="120" height="80" as="geometry" />
        </mxCell>
        <mxCell id="UuzJHWqhamIT8Px1-cuo-2" value="" style="endArrow=none;html=1;rounded=0;exitX=0.4;exitY=-0.025;exitDx=0;exitDy=0;exitPerimeter=0;entryX=0.7;entryY=0.937;entryDx=0;entryDy=0;entryPerimeter=0;" edge="1" parent="1" source="A5ztiFUX0k2Zx3acSY-h-35" target="UuzJHWqhamIT8Px1-cuo-1">
          <mxGeometry width="50" height="50" relative="1" as="geometry">
            <mxPoint x="-198" y="230" as="sourcePoint" />
            <mxPoint x="-387" y="135" as="targetPoint" />
          </mxGeometry>
        </mxCell>
        <mxCell id="UuzJHWqhamIT8Px1-cuo-3" value="Change email" style="ellipse;whiteSpace=wrap;html=1;" vertex="1" parent="1">
          <mxGeometry x="-603" y="-117" width="120" height="80" as="geometry" />
        </mxCell>
        <mxCell id="UuzJHWqhamIT8Px1-cuo-4" value="Change Password" style="ellipse;whiteSpace=wrap;html=1;" vertex="1" parent="1">
          <mxGeometry x="-402" y="-117" width="120" height="80" as="geometry" />
        </mxCell>
        <mxCell id="UuzJHWqhamIT8Px1-cuo-5" value="" style="endArrow=none;html=1;rounded=0;entryX=0.817;entryY=0.012;entryDx=0;entryDy=0;entryPerimeter=0;" edge="1" parent="1" source="UuzJHWqhamIT8Px1-cuo-4" target="UuzJHWqhamIT8Px1-cuo-1">
          <mxGeometry width="50" height="50" relative="1" as="geometry">
            <mxPoint x="-204" y="61" as="sourcePoint" />
            <mxPoint x="-234" y="120" as="targetPoint" />
          </mxGeometry>
        </mxCell>
        <mxCell id="UuzJHWqhamIT8Px1-cuo-6" value="" style="endArrow=none;html=1;rounded=0;entryX=0.817;entryY=0.012;entryDx=0;entryDy=0;entryPerimeter=0;" edge="1" parent="1" source="UuzJHWqhamIT8Px1-cuo-3">
          <mxGeometry width="50" height="50" relative="1" as="geometry">
            <mxPoint x="-425" y="-28" as="sourcePoint" />
            <mxPoint x="-452" y="38" as="targetPoint" />
          </mxGeometry>
        </mxCell>
      </root>
    </mxGraphModel>
  </diagram>
</mxfile>
